<svg version="1.2" xmlns="http://www.w3.org/2000/svg" viewBox="0 0 1249 1264" width="1249" height="1264"><style>.a{fill:#fefefe}</style><path class="a" d="m583 0.2c10.2-0.1 25.3 0.3 33.5 0.8 8.3 0.6 22 1.9 30.5 3.1 8.5 1.1 25.2 3.6 37 5.5 11.8 1.9 31.6 4.9 44 6.5 12.4 1.6 26.5 3.6 31.5 4.5 5 0.8 12.4 2.2 16.5 3 4.1 0.8 13.8 3.1 21.5 5 7.7 1.9 19.2 5 25.5 6.9 6.3 1.9 18.3 5.9 26.5 8.9 8.3 3 18.9 7 23.8 9 4.8 2 8.6 4 8.4 4.5-0.1 0.6-13.4 14.9-29.6 31.8-16.2 16.9-54.3 56.2-84.7 87.3-30.3 31.1-67 68.2-81.5 82.5-14.5 14.3-46.9 44.9-71.9 68-25 23.1-57 52.5-71 65.4-14 12.9-39.9 37.9-57.6 55.5-17.6 17.7-46.9 48.3-65 68.1-18.1 19.8-42.1 45.9-53.4 58-11.2 12.1-34.5 36.9-51.6 55-17.1 18.1-47.8 50.8-68.3 72.5-20.4 21.7-37.1 39.7-37.1 40 0 0.3 59.5 4.1 132.2 8.4 83.7 5 132.7 8.3 133.4 9 0.5 0.6 1.3 1.9 1.7 2.9 0.4 1 0.3 1.5-0.3 1.2-0.5-0.3-1 0.3-1 1.3 0 0.9-14.6 24.4-32.6 52.2-17.9 27.8-34.1 52.8-35.9 55.5-1.8 2.7-6.3 9.7-10 15.5-3.8 5.8-22.9 35.5-42.5 66-19.6 30.5-39.3 61.6-43.7 69-4.5 7.4-12 20.5-16.8 29-4.7 8.5-12.6 23.6-17.4 33.5-4.9 9.9-11.4 24.3-14.6 32-3.2 7.7-5.8 14.1-5.9 14.3 0 0.1-4.8-3.3-10.6-7.7-5.8-4.3-16.3-12.8-23.5-18.7-7.1-5.9-22.2-20-33.5-31.3-11.3-11.4-25.3-26.2-31-33.1-5.7-6.9-14.7-18.4-20.1-25.5-5.3-7.1-12.6-17.5-16.2-23-3.6-5.5-9.5-15-13.2-21-3.6-6-11.7-21.1-17.9-33.5-6.2-12.4-15.3-32.9-20.3-45.5-5.1-12.6-12.2-31.3-15.8-41.5-3.7-10.2-13.2-38.1-21.1-62-7.9-23.9-15.5-48-16.8-53.5-1.4-5.5-4.1-18.1-6-28-1.9-9.9-4.4-24.3-5.5-32-1.1-7.7-2.6-19.9-3.3-27-0.7-7.6-1.3-26.2-1.3-44.5 0-18.3 0.6-36.7 1.3-44 0.7-6.9 2-17.9 2.8-24.5 0.8-6.6 2.6-18.8 4-27 1.4-8.3 4.3-22.9 6.5-32.5 2.2-9.6 5.8-23.8 8-31.5 2.2-7.7 5.9-19.4 8.1-26 2.2-6.6 6.4-18.1 9.3-25.5 2.9-7.4 7.8-19.4 10.9-26.5 3.2-7.1 10.3-22 16-33 5.6-11 14.4-27 19.6-35.5 5.1-8.5 13.8-22.3 19.3-30.5 5.6-8.3 15.3-22 21.8-30.5 6.4-8.5 17.4-22.3 24.5-30.5 7.1-8.3 21.2-23.3 31.4-33.5 10.2-10.2 24.8-24 32.5-30.5 7.7-6.6 19-15.9 25-20.6 6.1-4.7 16.4-12.3 23-17 6.6-4.6 17-11.6 23-15.6 6.1-3.9 17.1-10.6 24.5-14.8 7.4-4.3 20.5-11.2 29-15.5 8.5-4.3 21.6-10.3 29-13.5 7.4-3.2 19.8-8.1 27.5-11 7.7-2.9 20.1-7.1 27.5-9.3 7.4-2.2 19.6-5.7 27-7.6 7.4-2 20.3-4.9 28.5-6.6 8.3-1.6 22.6-4.1 32-5.4 9.4-1.4 22.9-3 30-3.6 7.1-0.5 15-1.2 17.5-1.3 2.5-0.2 12.8-0.4 23-0.5zm422.2 129l6.2 4.6c3.3 2.6 10.6 8.4 16.1 13 5.5 4.6 16.4 14.3 24.3 21.5 7.9 7.3 20.6 19.9 28.2 28.2 7.6 8.2 18 19.9 23 26 5.1 6.1 14.5 18 20.9 26.5 6.4 8.5 16 22 21.3 30 5.2 8 13.1 20.4 17.4 27.5 4.2 7.1 12.4 22 18 33 5.7 11 12.8 25.9 15.9 33 3.2 7.1 8.3 19.7 11.5 28 3.2 8.2 8.1 22.4 11 31.5 2.8 9.1 5.5 17.4 6 18.5 0.5 1.1 3.3 12.4 6.3 25 3 12.6 6.6 29.7 8.1 38 1.4 8.2 3.4 22 4.5 30.5 1.1 8.5 2.6 22 3.3 30 0.7 8.1 1.2 28.8 1.2 47 0 17.9-0.5 39-1.2 47-0.7 8-2.2 21.5-3.3 30-1.1 8.5-2.9 20.2-4 26-1.1 5.8-2.9 14.1-4 18.5-1.1 4.4-3.6 13.4-5.6 20-2 6.6-5.9 17.9-8.8 25-2.9 7.1-7.5 17.7-10.3 23.5-2.8 5.8-7.4 14.5-10.3 19.5-2.8 5-7.9 13-11.4 18-3.4 5-10 13.5-14.6 19-4.6 5.4-10.9 12-13.9 14.5-3 2.5-8.8 6.6-12.9 9-5.4 3.2-8.3 5.8-13.2 13.5l5.3 0.5c2.9 0.3 6.3 1.1 7.6 1.8 1.2 0.7 3.2 3.3 4.4 5.9 1.7 3.6 2.3 7.2 2.6 14.3 0.3 6.2-0.2 12.6-1.3 18.5-0.9 5-3.4 14.3-5.6 20.7-2.1 6.5-5.9 16.4-8.4 22-2.5 5.7-7.3 15.3-10.6 21.3-3.4 6-9.9 16.6-14.5 23.5-4.5 6.9-13.1 18.6-19 26-5.9 7.4-18.4 21.2-27.8 30.6-9.4 9.4-23.9 22.7-32.1 29.5-8.3 6.8-21.3 17.2-29 23-7.7 5.8-21.6 15.8-31 22.1-9.3 6.3-22.6 14.9-29.5 19-6.9 4.1-18.8 10.9-26.5 15.1-7.7 4.2-21 10.8-29.5 14.8-8.5 3.9-22 9.7-30 12.9-8 3.2-21.5 8.1-30 10.9-8.5 2.9-22 7-30 9.1-8 2.2-20.9 5.3-28.7 7-7.9 1.6-19.8 3.9-26.5 5-6.8 1.1-18.4 2.7-25.8 3.6-7.4 0.8-25.6 1.8-40.5 2.1-17.2 0.4-33 0.1-43.5-0.6-9.1-0.7-23.2-2.3-31.5-3.6-8.2-1.3-20-3.5-26-5-6-1.4-16.2-4.2-22.5-6.1-6.3-2-15.9-5.4-21.2-7.5-8-3.2-13.9-4.6-31.5-7.5-12-1.9-26.5-4.4-32.3-5.5-5.8-1.1-17.5-3.8-26-6-8.5-2.2-22.5-6.3-31-9.1-8.5-2.8-22.7-8-31.5-11.5-8.8-3.5-22.6-9.7-30.7-13.6-8.1-4-14.5-7.5-14.3-8 0.3-0.4-0.2-0.9-1-1.2-1.3-0.4-1.3-0.8 0.3-2.3 0.9-0.9 4-2.6 6.7-3.6 2.8-1 9.5-4.1 15-6.9 5.5-2.7 15.6-8.3 22.5-12.5 6.9-4.1 17.9-11.1 24.5-15.5 6.6-4.5 16.3-11.2 21.5-15.1 5.2-3.8 14.9-11.2 21.5-16.4 6.6-5.3 18.3-15 26-21.7 7.7-6.7 24.1-21.6 36.5-33.1 12.3-11.5 39.8-37.3 61-57.4 21.2-20.1 47.5-45.1 58.5-55.6 11-10.4 23.4-21.2 27.5-24 4.1-2.8 17-11 28.5-18.1 11.5-7.2 29.1-18.8 39-25.8 9.9-7 24.8-17.9 33-24.3 8.3-6.4 24-19.1 35-28.3 11-9.1 27.4-23.3 36.5-31.5 9.1-8.1 32.5-30.8 52-50.4 19.5-19.5 49.7-50.1 67-67.9 17.3-17.9 41.4-41.7 53.5-53 12.1-11.4 44.2-40.9 120.8-110.6l-9.9-0.7c-5.4-0.3-20-1.1-32.4-1.8-12.4-0.6-31.7-1.8-43-2.6-11.3-0.8-33.8-2.6-50-3.9-16.2-1.4-47.3-4.3-69-6.5-21.7-2.2-54.3-5.5-72.5-7.4-18.1-1.9-36.3-3.8-40.3-4.3-4-0.4-7.2-0.8-7.2-0.8 0 0 0.9-2.3 2.1-5 1.3-2.8 12.6-23.2 25.2-45.5 12.6-22.3 29.5-51.8 37.5-65.5 8-13.8 21.2-35.8 29.2-49 8.1-13.2 34.2-55.3 58.1-93.5 24-38.2 46.1-73.8 49.3-79.2z"/></svg>